<?xml version="1.0" encoding="UTF-8" standalone="no"?>
<!DOCTYPE svg PUBLIC "-//W3C//DTD SVG 1.1//EN" "http://www.w3.org/Graphics/SVG/1.1/DTD/svg11.dtd">
<svg xmlns="http://www.w3.org/2000/svg" xmlns:xlink="http://www.w3.org/1999/xlink" version="1.1" width="612pt" height="792pt" viewBox="0 0 612 792">
<g enable-background="new">
<text xml:space="preserve" transform="matrix(1 0 -0 1 0 792)" font-size="9.9626" font-family="LMRoman10" font-weight="bold"><tspan y="-686.996" x="106.745 115.023929 120.59302 123.78105 128.87195 135.23805 138.42609 143.99518 148.44846 151.63649 158.0026 167.54677 172.00005 178.36615 187.44208 192.16436 197.41464 203.45198 209.81809 213.00612 217.7284 222.97869 233.17043 242.7146 248.28369 252.80672 261.14543 266.8739 274.18647 280.45295 286.81904 292.06935">CalculatingtherequiredmassofFuel</tspan></text>
<text xml:space="preserve" transform="matrix(1 0 -0 1 0 792)" font-size="11.9552" font-family="LMRoman12"><tspan y="-661.094" x="106.745 114.38438 119.91963 128.03722 133.23773 141.70201 148.20565 153.40616 159.90979 164.52449 167.7763 171.99649 182.08667 187.94472 195.41672 201.92035 211.03022 218.3468 230.69654 234.27114 240.77477 245.97528 249.2271 257.6794 263.53749 269.39555 272.64735 282.41477 287.6153 299.6422 306.14585 312.0039 318.18476">PowerdensityofSOFCfuel:36.6kWh/kg</tspan><tspan y="-633.198" x="106.745 117.46882 123.326869 127.941577 136.45368 141.0086 146.20912 152.38996 158.89359 162.1454 166.70034 171.90085 182.31383 189.14025 194.34076 202.79309 209.29673 215.15477 221.6584 226.21334">Massrequiredperhour:</tspan><tspan y="-612.386" x="249.26502 255.12306">74</tspan></text>
<text xml:space="preserve" transform="matrix(1 0 -0 1 0 792)" font-size="11.9552" font-family="LMMathItalic12" font-style="italic"><tspan y="-612.386" x="260.971">.</tspan></text>
<text xml:space="preserve" transform="matrix(1 0 -0 1 0 792)" font-size="11.9552" font-family="LMRoman12"><tspan y="-612.386" x="264.22303">4</tspan></text>
<path transform="matrix(1,0,0,-1,235.4,184.71302)" stroke-width=".398" stroke-linecap="butt" stroke-miterlimit="10" stroke-linejoin="miter" fill="none" stroke="#000000" d="M 0 0 L 48.54 0 "/>
<text xml:space="preserve" transform="matrix(1 0 -0 1 0 792)" font-size="11.9552" font-family="LMRoman12"><tspan y="-596.098" x="235.4 241.25804">36</tspan></text>
<text xml:space="preserve" transform="matrix(1 0 -0 1 0 792)" font-size="11.9552" font-family="LMMathItalic12" font-style="italic"><tspan y="-596.098" x="247.10599">.</tspan></text>
<text xml:space="preserve" transform="matrix(1 0 -0 1 0 792)" font-size="11.9552" font-family="LMRoman12"><tspan y="-596.098" x="250.35799">6</tspan></text>
<text xml:space="preserve" transform="matrix(1 0 -0 1 0 792)" font-size="11.9552" font-family="LMMathSymbols10" font-style="italic"><tspan y="-596.098" x="258.86799">&#x2217;</tspan></text>
<text xml:space="preserve" transform="matrix(1 0 -0 1 0 792)" font-size="11.9552" font-family="LMRoman12"><tspan y="-596.098" x="267.50199 273.36006">10</tspan></text>
<text xml:space="preserve" transform="matrix(1 0 -0 1 0 792)" font-size="7.9701" font-family="LMRoman8"><tspan y="-599.551" x="279.20799">3</tspan></text>
<text xml:space="preserve" transform="matrix(1 0 -0 1 0 792)" font-size="11.9552" font-family="LMRoman12"><tspan y="-604.29806" x="288.45698 300.89039">=2</tspan></text>
<text xml:space="preserve" transform="matrix(1 0 -0 1 0 792)" font-size="11.9552" font-family="LMMathItalic12" font-style="italic"><tspan y="-604.29806" x="306.735">.</tspan></text>
<text xml:space="preserve" transform="matrix(1 0 -0 1 0 792)" font-size="11.9552" font-family="LMRoman12"><tspan y="-604.29806" x="309.987 315.84507 321.70314">034</tspan></text>
<text xml:space="preserve" transform="matrix(1 0 -0 1 0 792)" font-size="11.9552" font-family="LMMathSymbols10" font-style="italic"><tspan y="-604.29806" x="330.203">&#x2217;</tspan></text>
<text xml:space="preserve" transform="matrix(1 0 -0 1 0 792)" font-size="11.9552" font-family="LMRoman12"><tspan y="-604.29806" x="338.837 344.69508">10</tspan></text>
<text xml:space="preserve" transform="matrix(1 0 -0 1 0 792)" font-size="7.9701" font-family="LMMathSymbols8" font-style="italic"><tspan y="-609.23507" x="350.543">&#x2212;</tspan></text>
<text xml:space="preserve" transform="matrix(1 0 -0 1 0 792)" font-size="7.9701" font-family="LMRoman8"><tspan y="-609.23507" x="357.13">3</tspan></text>
<text xml:space="preserve" transform="matrix(1 0 -0 1 0 792)" font-size="11.9552" font-family="LMRoman12"><tspan y="-604.29806" x="365.764 371.94486">kg</tspan><tspan y="-576.786" x="106.744998 113.404048 119.26209 127.72637 133.58443 143.33988 149.8435 155.37877 161.5596 170.0717 179.82715 183.07897 187.69367 192.30837 195.56018 201.41823 207.92186 216.37419">For60daysmission:0</tspan></text>
<text xml:space="preserve" transform="matrix(1 0 -0 1 0 792)" font-size="11.9552" font-family="LMMathItalic12" font-style="italic"><tspan y="-576.786" x="222.211">.</tspan></text>
<text xml:space="preserve" transform="matrix(1 0 -0 1 0 792)" font-size="11.9552" font-family="LMRoman12"><tspan y="-576.786" x="225.463 231.32105 237.1791 243.03714 248.89519 254.75324 264.5087 270.68955">002034kg</tspan></text>
<text xml:space="preserve" transform="matrix(1 0 -0 1 0 792)" font-size="11.9552" font-family="LMMathSymbols10" font-style="italic"><tspan y="-576.786" x="280.416">&#x2217;</tspan></text>
<text xml:space="preserve" transform="matrix(1 0 -0 1 0 792)" font-size="11.9552" font-family="LMRoman12"><tspan y="-576.786" x="290.296 296.15406 302.01213 307.87019 317.62565 324.12928 329.98735 336.49098 341.0459 349.56999 362.57725">1440hours=2</tspan></text>
<text xml:space="preserve" transform="matrix(1 0 -0 1 0 792)" font-size="11.9552" font-family="LMMathItalic12" font-style="italic"><tspan y="-576.786" x="368.40199">.</tspan></text>
<text xml:space="preserve" transform="matrix(1 0 -0 1 0 792)" font-size="11.9552" font-family="LMRoman12"><tspan y="-576.786" x="371.65299 377.51106 387.2665 393.44737">92kg</tspan><tspan y="-548.891" x="106.744998 114.216999 120.07504 124.629978 130.48802 137.64919 147.40464 153.26268 157.87738 166.38948 179.39675 186.06775 192.57138 197.7719 204.92111 215.64493 221.50298 226.11768 234.64173 247.64899 254.15262 263.26249 270.57908 282.9288 292.68424 298.5423 303.157 311.6811 324.68836 333.1407 338.99876 345.1796 349.73454 355.5926 358.8444 365.34803 370.54853 379.00086 389.72468 395.58274 400.19746">Totalmass=FuelMass+SOFCmass+ContainerMass</tspan><tspan y="-520.995" x="91.800998 100.57611 105.19082 109.80553 116.30916 126.064609 129.31642 135.82006 146.55582 156.31127 162.16931 166.78401 176.28839 182.14644 188.00449">Assumingmass191</tspan></text>
<text xml:space="preserve" transform="matrix(1 0 -0 1 0 792)" font-size="11.9552" font-family="LMRoman12" font-style="italic"><tspan y="-520.995" x="198.928 204.30783">gm</tspan></text>
<text xml:space="preserve" transform="matrix(1 0 -0 1 0 792)" font-size="11.9552" font-family="LMRoman12"><tspan y="-520.995" x="219.355 225.85863 234.96849 242.28508 250.73741 258.86695 264.725 270.58308">SOFC,648</tspan></text>
<text xml:space="preserve" transform="matrix(1 0 -0 1 0 792)" font-size="11.9552" font-family="LMRoman12" font-style="italic"><tspan y="-520.995" x="281.509 286.88887">gm</tspan></text>
<text xml:space="preserve" transform="matrix(1 0 -0 1 0 792)" font-size="11.9552" font-family="LMRoman12"><tspan y="-520.995" x="301.935 310.7101 316.89097 323.3946 327.94953 333.8076 339.66566 344.86616 356.2475 361.448 367.30607 373.4869 378.04185 383.8999 387.1517 393.65534 398.85585 403.41078 411.79136 417.6494 423.50749">Hydrogencontainer,357</tspan></text>
<text xml:space="preserve" transform="matrix(1 0 -0 1 0 792)" font-size="11.9552" font-family="LMRoman12" font-style="italic"><tspan y="-520.995" x="434.409 439.78886">gm</tspan></text>
<text xml:space="preserve" transform="matrix(1 0 -0 1 0 792)" font-size="11.9552" font-family="LMRoman12"><tspan y="-520.995" x="454.836 463.94587 470.1267 476.30757 482.16563 487.36613 498.74748 503.94798 509.80604 516.30966">Oxygencon-</tspan><tspan y="-507.048" x="91.800998 96.35593 102.213977 105.46579 111.96942 117.16994 121.72487 128.87409 133.42902 139.28707 143.842 149.70005 156.8612 166.61666 172.4747 177.0894 185.6015 188.85332 197.36542 203.22347 210.06185 215.91989 222.42353">tainer,totalmassisabout</tspan></text>
<text xml:space="preserve" transform="matrix(1 0 -0 1 0 792)" font-size="11.9552" font-family="LMMathSymbols10" font-style="italic"><tspan y="-507.048" x="230.843">&#x2248;</tspan></text>
<text xml:space="preserve" transform="matrix(1 0 -0 1 0 792)" font-size="11.9552" font-family="LMRoman12"><tspan y="-507.048" x="243.463">4</tspan></text>
<text xml:space="preserve" transform="matrix(1 0 -0 1 0 792)" font-size="11.9552" font-family="LMMathItalic12" font-style="italic"><tspan y="-507.048" x="249.316">.</tspan></text>
<text xml:space="preserve" transform="matrix(1 0 -0 1 0 792)" font-size="11.9552" font-family="LMRoman12"><tspan y="-507.048" x="252.568 258.42607 264.28413">134</tspan></text>
<text xml:space="preserve" transform="matrix(1 0 -0 1 0 792)" font-size="11.9552" font-family="LMRoman12" font-style="italic"><tspan y="-507.048" x="274.311 279.69087">kg</tspan></text>
<text xml:space="preserve" transform="matrix(1 0 -0 1 0 792)" font-size="9.9626" font-family="LMRoman10"><tspan y="-112.67401" x="303.509">1</tspan></text>
</g>
</svg>
