<svg width="421" height="378" viewBox="0 0 421 378" fill="none" xmlns="http://www.w3.org/2000/svg">
<path d="M142.835 341.455V342.307H139.307V341.455H142.835ZM140.364 348V340.551C140.364 340.176 140.452 339.864 140.628 339.614C140.804 339.364 141.033 339.176 141.314 339.051C141.595 338.926 141.892 338.864 142.205 338.864C142.452 338.864 142.653 338.884 142.81 338.923C142.966 338.963 143.082 339 143.159 339.034L142.869 339.903C142.818 339.886 142.747 339.865 142.656 339.839C142.568 339.814 142.452 339.801 142.307 339.801C141.974 339.801 141.734 339.885 141.587 340.053C141.442 340.22 141.369 340.466 141.369 340.79V348H140.364ZM144.245 348V341.455H145.25V348H144.245ZM144.756 340.364C144.56 340.364 144.391 340.297 144.249 340.163C144.11 340.03 144.04 339.869 144.04 339.682C144.04 339.494 144.11 339.334 144.249 339.2C144.391 339.067 144.56 339 144.756 339C144.952 339 145.12 339.067 145.259 339.2C145.401 339.334 145.472 339.494 145.472 339.682C145.472 339.869 145.401 340.03 145.259 340.163C145.12 340.297 144.952 340.364 144.756 340.364ZM149.734 350.591C149.249 350.591 148.831 350.528 148.482 350.403C148.132 350.281 147.841 350.119 147.608 349.918C147.378 349.719 147.195 349.506 147.058 349.278L147.859 348.716C147.95 348.835 148.065 348.972 148.205 349.125C148.344 349.281 148.534 349.416 148.776 349.53C149.02 349.646 149.339 349.705 149.734 349.705C150.263 349.705 150.699 349.577 151.043 349.321C151.386 349.065 151.558 348.665 151.558 348.119V346.79H151.473C151.399 346.909 151.294 347.057 151.158 347.233C151.024 347.406 150.831 347.561 150.578 347.697C150.328 347.831 149.99 347.898 149.564 347.898C149.036 347.898 148.561 347.773 148.141 347.523C147.723 347.273 147.392 346.909 147.148 346.432C146.906 345.955 146.786 345.375 146.786 344.693C146.786 344.023 146.903 343.439 147.139 342.942C147.375 342.442 147.703 342.055 148.124 341.783C148.544 341.507 149.03 341.369 149.581 341.369C150.007 341.369 150.345 341.44 150.595 341.582C150.848 341.722 151.041 341.881 151.175 342.06C151.311 342.236 151.416 342.381 151.49 342.494H151.592V341.455H152.564V348.188C152.564 348.75 152.436 349.207 152.18 349.56C151.928 349.915 151.587 350.175 151.158 350.339C150.732 350.507 150.257 350.591 149.734 350.591ZM149.7 346.994C150.104 346.994 150.445 346.902 150.723 346.717C151.001 346.533 151.213 346.267 151.358 345.92C151.503 345.574 151.575 345.159 151.575 344.676C151.575 344.205 151.504 343.788 151.362 343.428C151.22 343.067 151.01 342.784 150.732 342.58C150.453 342.375 150.109 342.273 149.7 342.273C149.274 342.273 148.919 342.381 148.635 342.597C148.354 342.812 148.142 343.102 148 343.466C147.861 343.83 147.791 344.233 147.791 344.676C147.791 345.131 147.862 345.533 148.004 345.882C148.149 346.229 148.362 346.501 148.643 346.7C148.928 346.896 149.28 346.994 149.7 346.994ZM155.138 348.068C154.928 348.068 154.747 347.993 154.597 347.842C154.446 347.692 154.371 347.511 154.371 347.301C154.371 347.091 154.446 346.911 154.597 346.76C154.747 346.609 154.928 346.534 155.138 346.534C155.348 346.534 155.528 346.609 155.679 346.76C155.83 346.911 155.905 347.091 155.905 347.301C155.905 347.44 155.869 347.568 155.798 347.685C155.73 347.801 155.638 347.895 155.521 347.966C155.408 348.034 155.28 348.068 155.138 348.068ZM155.138 343.21C154.928 343.21 154.747 343.135 154.597 342.984C154.446 342.834 154.371 342.653 154.371 342.443C154.371 342.233 154.446 342.053 154.597 341.902C154.747 341.751 154.928 341.676 155.138 341.676C155.348 341.676 155.528 341.751 155.679 341.902C155.83 342.053 155.905 342.233 155.905 342.443C155.905 342.582 155.869 342.71 155.798 342.827C155.73 342.943 155.638 343.037 155.521 343.108C155.408 343.176 155.28 343.21 155.138 343.21ZM161.579 348H160.471L163.675 339.273H164.766L167.971 348H166.863L164.255 340.653H164.187L161.579 348ZM161.988 344.591H166.454V345.528H161.988V344.591ZM170.2 344.062V348H169.194V341.455H170.165V342.477H170.251C170.404 342.145 170.637 341.878 170.95 341.676C171.262 341.472 171.665 341.369 172.16 341.369C172.603 341.369 172.991 341.46 173.323 341.642C173.656 341.821 173.914 342.094 174.099 342.46C174.283 342.824 174.376 343.284 174.376 343.841V348H173.37V343.909C173.37 343.395 173.237 342.994 172.969 342.707C172.702 342.418 172.336 342.273 171.87 342.273C171.549 342.273 171.262 342.342 171.009 342.482C170.759 342.621 170.562 342.824 170.417 343.091C170.272 343.358 170.2 343.682 170.2 344.062ZM178.873 348.136C178.282 348.136 177.763 347.996 177.317 347.714C176.874 347.433 176.527 347.04 176.277 346.534C176.03 346.028 175.907 345.437 175.907 344.761C175.907 344.08 176.03 343.484 176.277 342.976C176.527 342.467 176.874 342.072 177.317 341.791C177.763 341.51 178.282 341.369 178.873 341.369C179.463 341.369 179.98 341.51 180.424 341.791C180.87 342.072 181.216 342.467 181.463 342.976C181.713 343.484 181.838 344.08 181.838 344.761C181.838 345.437 181.713 346.028 181.463 346.534C181.216 347.04 180.87 347.433 180.424 347.714C179.98 347.996 179.463 348.136 178.873 348.136ZM178.873 347.233C179.321 347.233 179.691 347.118 179.98 346.888C180.27 346.658 180.485 346.355 180.624 345.98C180.763 345.605 180.833 345.199 180.833 344.761C180.833 344.324 180.763 343.916 180.624 343.538C180.485 343.161 180.27 342.855 179.98 342.622C179.691 342.389 179.321 342.273 178.873 342.273C178.424 342.273 178.054 342.389 177.765 342.622C177.475 342.855 177.26 343.161 177.121 343.538C176.982 343.916 176.912 344.324 176.912 344.761C176.912 345.199 176.982 345.605 177.121 345.98C177.26 346.355 177.475 346.658 177.765 346.888C178.054 347.118 178.424 347.233 178.873 347.233ZM185.845 348.136C185.3 348.136 184.818 347.999 184.401 347.723C183.983 347.445 183.656 347.053 183.42 346.547C183.185 346.038 183.067 345.438 183.067 344.744C183.067 344.057 183.185 343.46 183.42 342.955C183.656 342.449 183.984 342.058 184.405 341.783C184.825 341.507 185.311 341.369 185.862 341.369C186.288 341.369 186.625 341.44 186.872 341.582C187.122 341.722 187.313 341.881 187.443 342.06C187.577 342.236 187.68 342.381 187.754 342.494H187.839V339.273H188.845V348H187.874V346.994H187.754C187.68 347.114 187.575 347.264 187.439 347.446C187.303 347.625 187.108 347.786 186.855 347.928C186.602 348.067 186.266 348.136 185.845 348.136ZM185.982 347.233C186.385 347.233 186.726 347.128 187.004 346.918C187.283 346.705 187.494 346.411 187.639 346.036C187.784 345.658 187.857 345.222 187.857 344.727C187.857 344.239 187.786 343.811 187.643 343.445C187.501 343.075 187.291 342.788 187.013 342.584C186.734 342.376 186.391 342.273 185.982 342.273C185.555 342.273 185.2 342.382 184.916 342.601C184.635 342.817 184.423 343.111 184.281 343.483C184.142 343.852 184.072 344.267 184.072 344.727C184.072 345.193 184.143 345.616 184.286 345.997C184.43 346.375 184.643 346.676 184.925 346.901C185.209 347.122 185.561 347.233 185.982 347.233ZM193.571 348.136C192.94 348.136 192.396 347.997 191.939 347.719C191.484 347.438 191.134 347.045 190.886 346.543C190.642 346.037 190.52 345.449 190.52 344.778C190.52 344.108 190.642 343.517 190.886 343.006C191.134 342.491 191.477 342.091 191.918 341.804C192.361 341.514 192.878 341.369 193.469 341.369C193.81 341.369 194.146 341.426 194.479 341.54C194.811 341.653 195.114 341.838 195.386 342.094C195.659 342.347 195.876 342.682 196.038 343.099C196.2 343.517 196.281 344.031 196.281 344.642V345.068H191.236V344.199H195.259C195.259 343.83 195.185 343.5 195.037 343.21C194.892 342.92 194.685 342.692 194.415 342.524C194.148 342.357 193.832 342.273 193.469 342.273C193.068 342.273 192.722 342.372 192.429 342.571C192.139 342.767 191.916 343.023 191.76 343.338C191.604 343.653 191.526 343.991 191.526 344.352V344.932C191.526 345.426 191.611 345.845 191.781 346.189C191.955 346.53 192.195 346.79 192.501 346.969C192.808 347.145 193.165 347.233 193.571 347.233C193.835 347.233 194.074 347.196 194.287 347.122C194.503 347.045 194.689 346.932 194.845 346.781C195.001 346.628 195.122 346.437 195.207 346.21L196.179 346.483C196.077 346.812 195.905 347.102 195.663 347.352C195.422 347.599 195.124 347.793 194.768 347.932C194.413 348.068 194.014 348.136 193.571 348.136ZM206.095 341.455C206.044 341.023 205.837 340.688 205.473 340.449C205.109 340.21 204.663 340.091 204.135 340.091C203.749 340.091 203.411 340.153 203.121 340.278C202.834 340.403 202.609 340.575 202.447 340.794C202.288 341.013 202.209 341.261 202.209 341.54C202.209 341.773 202.264 341.973 202.375 342.141C202.489 342.305 202.634 342.443 202.81 342.554C202.986 342.662 203.17 342.751 203.364 342.822C203.557 342.891 203.734 342.946 203.896 342.989L204.783 343.227C205.01 343.287 205.263 343.369 205.541 343.474C205.822 343.58 206.091 343.723 206.347 343.905C206.605 344.084 206.818 344.314 206.986 344.595C207.153 344.876 207.237 345.222 207.237 345.631C207.237 346.102 207.114 346.528 206.866 346.909C206.622 347.29 206.264 347.592 205.793 347.817C205.324 348.041 204.754 348.153 204.084 348.153C203.459 348.153 202.918 348.053 202.46 347.851C202.006 347.649 201.648 347.368 201.386 347.007C201.128 346.646 200.982 346.227 200.947 345.75H202.038C202.067 346.08 202.178 346.352 202.371 346.568C202.567 346.781 202.814 346.94 203.112 347.045C203.413 347.148 203.737 347.199 204.084 347.199C204.487 347.199 204.849 347.134 205.17 347.003C205.491 346.869 205.746 346.685 205.933 346.449C206.121 346.21 206.214 345.932 206.214 345.614C206.214 345.324 206.134 345.088 205.972 344.906C205.81 344.724 205.597 344.577 205.332 344.463C205.068 344.349 204.783 344.25 204.476 344.165L203.402 343.858C202.72 343.662 202.18 343.382 201.783 343.018C201.385 342.655 201.186 342.179 201.186 341.591C201.186 341.102 201.318 340.676 201.582 340.312C201.849 339.946 202.207 339.662 202.656 339.46C203.108 339.256 203.612 339.153 204.169 339.153C204.732 339.153 205.232 339.254 205.669 339.456C206.107 339.655 206.453 339.928 206.709 340.274C206.967 340.621 207.104 341.014 207.118 341.455H206.095ZM212.963 345.324V341.455H213.969V348H212.963V346.892H212.895C212.742 347.224 212.503 347.507 212.179 347.74C211.855 347.97 211.446 348.085 210.952 348.085C210.543 348.085 210.179 347.996 209.861 347.817C209.543 347.635 209.293 347.362 209.111 346.999C208.929 346.632 208.838 346.17 208.838 345.614V341.455H209.844V345.545C209.844 346.023 209.978 346.403 210.245 346.688C210.515 346.972 210.858 347.114 211.276 347.114C211.526 347.114 211.78 347.05 212.039 346.922C212.3 346.794 212.519 346.598 212.695 346.334C212.874 346.07 212.963 345.733 212.963 345.324ZM215.811 350.455V341.455H216.783V342.494H216.902C216.976 342.381 217.078 342.236 217.209 342.06C217.342 341.881 217.533 341.722 217.78 341.582C218.03 341.44 218.368 341.369 218.794 341.369C219.345 341.369 219.831 341.507 220.251 341.783C220.672 342.058 221 342.449 221.236 342.955C221.472 343.46 221.589 344.057 221.589 344.744C221.589 345.438 221.472 346.038 221.236 346.547C221 347.053 220.673 347.445 220.256 347.723C219.838 347.999 219.357 348.136 218.811 348.136C218.391 348.136 218.054 348.067 217.801 347.928C217.548 347.786 217.354 347.625 217.217 347.446C217.081 347.264 216.976 347.114 216.902 346.994H216.817V350.455H215.811ZM216.8 344.727C216.8 345.222 216.872 345.658 217.017 346.036C217.162 346.411 217.374 346.705 217.652 346.918C217.93 347.128 218.271 347.233 218.675 347.233C219.095 347.233 219.446 347.122 219.727 346.901C220.011 346.676 220.224 346.375 220.366 345.997C220.511 345.616 220.584 345.193 220.584 344.727C220.584 344.267 220.513 343.852 220.371 343.483C220.232 343.111 220.02 342.817 219.736 342.601C219.455 342.382 219.101 342.273 218.675 342.273C218.266 342.273 217.922 342.376 217.643 342.584C217.365 342.788 217.155 343.075 217.013 343.445C216.871 343.811 216.8 344.239 216.8 344.727ZM223.124 350.455V341.455H224.095V342.494H224.214C224.288 342.381 224.391 342.236 224.521 342.06C224.655 341.881 224.845 341.722 225.092 341.582C225.342 341.44 225.68 341.369 226.107 341.369C226.658 341.369 227.143 341.507 227.564 341.783C227.984 342.058 228.313 342.449 228.548 342.955C228.784 343.46 228.902 344.057 228.902 344.744C228.902 345.438 228.784 346.038 228.548 346.547C228.313 347.053 227.986 347.445 227.568 347.723C227.151 347.999 226.669 348.136 226.124 348.136C225.703 348.136 225.366 348.067 225.114 347.928C224.861 347.786 224.666 347.625 224.53 347.446C224.393 347.264 224.288 347.114 224.214 346.994H224.129V350.455H223.124ZM224.112 344.727C224.112 345.222 224.185 345.658 224.33 346.036C224.474 346.411 224.686 346.705 224.964 346.918C225.243 347.128 225.584 347.233 225.987 347.233C226.408 347.233 226.759 347.122 227.04 346.901C227.324 346.676 227.537 346.375 227.679 345.997C227.824 345.616 227.896 345.193 227.896 344.727C227.896 344.267 227.825 343.852 227.683 343.483C227.544 343.111 227.332 342.817 227.048 342.601C226.767 342.382 226.413 342.273 225.987 342.273C225.578 342.273 225.234 342.376 224.956 342.584C224.678 342.788 224.467 343.075 224.325 343.445C224.183 343.811 224.112 344.239 224.112 344.727ZM233.095 348.136C232.504 348.136 231.986 347.996 231.54 347.714C231.097 347.433 230.75 347.04 230.5 346.534C230.253 346.028 230.129 345.437 230.129 344.761C230.129 344.08 230.253 343.484 230.5 342.976C230.75 342.467 231.097 342.072 231.54 341.791C231.986 341.51 232.504 341.369 233.095 341.369C233.686 341.369 234.203 341.51 234.646 341.791C235.092 342.072 235.439 342.467 235.686 342.976C235.936 343.484 236.061 344.08 236.061 344.761C236.061 345.437 235.936 346.028 235.686 346.534C235.439 347.04 235.092 347.433 234.646 347.714C234.203 347.996 233.686 348.136 233.095 348.136ZM233.095 347.233C233.544 347.233 233.913 347.118 234.203 346.888C234.493 346.658 234.707 346.355 234.847 345.98C234.986 345.605 235.055 345.199 235.055 344.761C235.055 344.324 234.986 343.916 234.847 343.538C234.707 343.161 234.493 342.855 234.203 342.622C233.913 342.389 233.544 342.273 233.095 342.273C232.646 342.273 232.277 342.389 231.987 342.622C231.697 342.855 231.483 343.161 231.344 343.538C231.205 343.916 231.135 344.324 231.135 344.761C231.135 345.199 231.205 345.605 231.344 345.98C231.483 346.355 231.697 346.658 231.987 346.888C232.277 347.118 232.646 347.233 233.095 347.233ZM237.596 348V341.455H238.568V342.443H238.636C238.755 342.119 238.971 341.857 239.284 341.655C239.596 341.453 239.949 341.352 240.341 341.352C240.414 341.352 240.507 341.354 240.618 341.357C240.728 341.359 240.812 341.364 240.869 341.369V342.392C240.835 342.384 240.757 342.371 240.635 342.354C240.515 342.334 240.389 342.324 240.255 342.324C239.937 342.324 239.653 342.391 239.403 342.524C239.156 342.655 238.96 342.837 238.815 343.07C238.673 343.3 238.602 343.562 238.602 343.858V348H237.596ZM245.318 341.455V342.307H241.926V341.455H245.318ZM242.914 339.886H243.92V346.125C243.92 346.409 243.961 346.622 244.044 346.764C244.129 346.903 244.237 346.997 244.368 347.045C244.501 347.091 244.642 347.114 244.789 347.114C244.9 347.114 244.991 347.108 245.062 347.097C245.133 347.082 245.19 347.071 245.233 347.062L245.437 347.966C245.369 347.991 245.274 348.017 245.152 348.043C245.029 348.071 244.875 348.085 244.687 348.085C244.403 348.085 244.125 348.024 243.852 347.902C243.582 347.78 243.358 347.594 243.179 347.344C243.002 347.094 242.914 346.778 242.914 346.398V339.886ZM255.115 341.455C255.064 341.023 254.856 340.688 254.493 340.449C254.129 340.21 253.683 340.091 253.154 340.091C252.768 340.091 252.43 340.153 252.14 340.278C251.853 340.403 251.629 340.575 251.467 340.794C251.308 341.013 251.228 341.261 251.228 341.54C251.228 341.773 251.284 341.973 251.395 342.141C251.508 342.305 251.653 342.443 251.829 342.554C252.005 342.662 252.19 342.751 252.383 342.822C252.576 342.891 252.754 342.946 252.916 342.989L253.802 343.227C254.029 343.287 254.282 343.369 254.561 343.474C254.842 343.58 255.11 343.723 255.366 343.905C255.625 344.084 255.838 344.314 256.005 344.595C256.173 344.876 256.257 345.222 256.257 345.631C256.257 346.102 256.133 346.528 255.886 346.909C255.642 347.29 255.284 347.592 254.812 347.817C254.343 348.041 253.774 348.153 253.103 348.153C252.478 348.153 251.937 348.053 251.48 347.851C251.025 347.649 250.667 347.368 250.406 347.007C250.147 346.646 250.001 346.227 249.967 345.75H251.058C251.086 346.08 251.197 346.352 251.39 346.568C251.586 346.781 251.833 346.94 252.132 347.045C252.433 347.148 252.757 347.199 253.103 347.199C253.507 347.199 253.869 347.134 254.19 347.003C254.511 346.869 254.765 346.685 254.953 346.449C255.14 346.21 255.234 345.932 255.234 345.614C255.234 345.324 255.153 345.088 254.991 344.906C254.829 344.724 254.616 344.577 254.352 344.463C254.088 344.349 253.802 344.25 253.495 344.165L252.422 343.858C251.74 343.662 251.2 343.382 250.802 343.018C250.404 342.655 250.206 342.179 250.206 341.591C250.206 341.102 250.338 340.676 250.602 340.312C250.869 339.946 251.227 339.662 251.676 339.46C252.127 339.256 252.632 339.153 253.189 339.153C253.751 339.153 254.251 339.254 254.689 339.456C255.126 339.655 255.473 339.928 255.728 340.274C255.987 340.621 256.123 341.014 256.137 341.455H255.115ZM265.358 343.636C265.358 344.557 265.192 345.352 264.859 346.023C264.527 346.693 264.071 347.21 263.491 347.574C262.912 347.938 262.25 348.119 261.506 348.119C260.761 348.119 260.099 347.938 259.52 347.574C258.94 347.21 258.484 346.693 258.152 346.023C257.82 345.352 257.653 344.557 257.653 343.636C257.653 342.716 257.82 341.92 258.152 341.25C258.484 340.58 258.94 340.062 259.52 339.699C260.099 339.335 260.761 339.153 261.506 339.153C262.25 339.153 262.912 339.335 263.491 339.699C264.071 340.062 264.527 340.58 264.859 341.25C265.192 341.92 265.358 342.716 265.358 343.636ZM264.335 343.636C264.335 342.881 264.209 342.243 263.956 341.723C263.706 341.203 263.366 340.81 262.938 340.543C262.511 340.276 262.034 340.142 261.506 340.142C260.977 340.142 260.499 340.276 260.07 340.543C259.643 340.81 259.304 341.203 259.051 341.723C258.801 342.243 258.676 342.881 258.676 343.636C258.676 344.392 258.801 345.03 259.051 345.55C259.304 346.07 259.643 346.463 260.07 346.73C260.499 346.997 260.977 347.131 261.506 347.131C262.034 347.131 262.511 346.997 262.938 346.73C263.366 346.463 263.706 346.07 263.956 345.55C264.209 345.03 264.335 344.392 264.335 343.636ZM267.135 348V339.273H272.368V340.21H268.192V343.159H271.976V344.097H268.192V348H267.135ZM281.201 342H280.144C280.081 341.696 279.972 341.429 279.816 341.199C279.662 340.969 279.475 340.776 279.253 340.619C279.034 340.46 278.792 340.341 278.525 340.261C278.257 340.182 277.979 340.142 277.689 340.142C277.161 340.142 276.682 340.276 276.253 340.543C275.827 340.81 275.488 341.203 275.235 341.723C274.985 342.243 274.86 342.881 274.86 343.636C274.86 344.392 274.985 345.03 275.235 345.55C275.488 346.07 275.827 346.463 276.253 346.73C276.682 346.997 277.161 347.131 277.689 347.131C277.979 347.131 278.257 347.091 278.525 347.011C278.792 346.932 279.034 346.814 279.253 346.658C279.475 346.499 279.662 346.304 279.816 346.074C279.972 345.841 280.081 345.574 280.144 345.273H281.201C281.121 345.719 280.976 346.118 280.766 346.47C280.556 346.822 280.294 347.122 279.982 347.369C279.669 347.614 279.319 347.8 278.929 347.928C278.543 348.055 278.13 348.119 277.689 348.119C276.945 348.119 276.283 347.938 275.703 347.574C275.124 347.21 274.668 346.693 274.336 346.023C274.003 345.352 273.837 344.557 273.837 343.636C273.837 342.716 274.003 341.92 274.336 341.25C274.668 340.58 275.124 340.062 275.703 339.699C276.283 339.335 276.945 339.153 277.689 339.153C278.13 339.153 278.543 339.217 278.929 339.345C279.319 339.473 279.669 339.661 279.982 339.908C280.294 340.152 280.556 340.45 280.766 340.803C280.976 341.152 281.121 341.551 281.201 342Z" fill="black"/>
<rect x="28" y="19" width="366" height="57.0069" fill="#74D5FD"/>
<rect x="28" y="76.0066" width="366" height="57.0069" fill="#FFFF5A"/>
<rect x="28" y="133.014" width="366" height="172.986" fill="#03FFCD"/>
<rect x="28.5" y="19.5" width="365" height="286" stroke="black"/>
<path d="M29 76.0066H393" stroke="black"/>
<path d="M29 133.014H393" stroke="black"/>
<path d="M167.08 38.7603H166.023C165.96 38.4563 165.851 38.1892 165.695 37.9591C165.541 37.729 165.354 37.5358 165.132 37.3796C164.913 37.2205 164.67 37.1012 164.403 37.0216C164.136 36.9421 163.858 36.9023 163.568 36.9023C163.04 36.9023 162.561 37.0358 162.132 37.3029C161.706 37.5699 161.366 37.9634 161.114 38.4833C160.864 39.0032 160.739 39.6409 160.739 40.3966C160.739 41.1523 160.864 41.7901 161.114 42.31C161.366 42.8299 161.706 43.2233 162.132 43.4904C162.561 43.7574 163.04 43.8909 163.568 43.8909C163.858 43.8909 164.136 43.8512 164.403 43.7716C164.67 43.6921 164.913 43.5742 165.132 43.4179C165.354 43.2588 165.541 43.0642 165.695 42.8341C165.851 42.6012 165.96 42.3341 166.023 42.033H167.08C167 42.479 166.855 42.8782 166.645 43.2304C166.435 43.5827 166.173 43.8824 165.861 44.1296C165.548 44.3739 165.197 44.56 164.808 44.6878C164.422 44.8157 164.009 44.8796 163.568 44.8796C162.824 44.8796 162.162 44.6978 161.582 44.3341C161.003 43.9705 160.547 43.4534 160.214 42.783C159.882 42.1125 159.716 41.3171 159.716 40.3966C159.716 39.4762 159.882 38.6807 160.214 38.0103C160.547 37.3398 161.003 36.8228 161.582 36.4591C162.162 36.0955 162.824 35.9137 163.568 35.9137C164.009 35.9137 164.422 35.9776 164.808 36.1054C165.197 36.2333 165.548 36.4208 165.861 36.6679C166.173 36.9122 166.435 37.2105 166.645 37.5628C166.855 37.9122 167 38.3114 167.08 38.7603ZM170.577 44.9137C170.162 44.9137 169.786 44.8355 169.448 44.6793C169.11 44.5202 168.841 44.2915 168.642 43.9932C168.444 43.6921 168.344 43.3284 168.344 42.9023C168.344 42.5273 168.418 42.2233 168.566 41.9904C168.713 41.7546 168.911 41.5699 169.158 41.4364C169.405 41.3029 169.678 41.2034 169.976 41.1381C170.277 41.0699 170.58 41.0159 170.884 40.9762C171.282 40.925 171.604 40.8867 171.851 40.8611C172.101 40.8327 172.283 40.7858 172.397 40.7205C172.513 40.6551 172.571 40.5415 172.571 40.3796V40.3455C172.571 39.925 172.456 39.5983 172.226 39.3654C171.999 39.1324 171.654 39.0159 171.191 39.0159C170.711 39.0159 170.334 39.121 170.061 39.3313C169.789 39.5415 169.597 39.7659 169.486 40.0046L168.532 39.6637C168.702 39.2659 168.929 38.9563 169.213 38.7347C169.5 38.5103 169.813 38.354 170.151 38.2659C170.492 38.175 170.827 38.1296 171.157 38.1296C171.367 38.1296 171.608 38.1551 171.881 38.2063C172.157 38.2546 172.422 38.3554 172.678 38.5088C172.936 38.6622 173.151 38.8938 173.321 39.2034C173.492 39.5131 173.577 39.9279 173.577 40.4478V44.7603H172.571V43.8739H172.52C172.452 44.0159 172.338 44.1679 172.179 44.3299C172.02 44.4918 171.809 44.6296 171.544 44.7432C171.28 44.8568 170.958 44.9137 170.577 44.9137ZM170.73 44.0103C171.128 44.0103 171.463 43.9321 171.736 43.7759C172.012 43.6196 172.219 43.4179 172.358 43.1708C172.5 42.9236 172.571 42.6637 172.571 42.3909V41.4705C172.529 41.5216 172.435 41.5685 172.29 41.6111C172.148 41.6509 171.983 41.6864 171.796 41.7176C171.611 41.746 171.431 41.7716 171.255 41.7943C171.081 41.8142 170.941 41.8313 170.833 41.8455C170.571 41.8796 170.327 41.935 170.1 42.0117C169.875 42.0855 169.694 42.1978 169.554 42.3483C169.418 42.496 169.35 42.6978 169.35 42.9534C169.35 43.3029 169.479 43.5671 169.738 43.746C169.999 43.9222 170.33 44.0103 170.73 44.0103ZM178.259 38.2148V39.0671H174.867V38.2148H178.259ZM175.856 36.6466H176.862V42.8853C176.862 43.1693 176.903 43.3824 176.985 43.5245C177.07 43.6637 177.178 43.7574 177.309 43.8057C177.442 43.8512 177.583 43.8739 177.731 43.8739C177.842 43.8739 177.933 43.8682 178.004 43.8568C178.075 43.8426 178.131 43.8313 178.174 43.8228L178.379 44.7262C178.31 44.7517 178.215 44.7773 178.093 44.8029C177.971 44.8313 177.816 44.8455 177.629 44.8455C177.344 44.8455 177.066 44.7844 176.793 44.6622C176.523 44.5401 176.299 44.354 176.12 44.104C175.944 43.854 175.856 43.5387 175.856 43.158V36.6466ZM180.918 40.8228V44.7603H179.913V36.033H180.918V39.2375H181.004C181.157 38.8995 181.387 38.631 181.694 38.4321C182.004 38.2304 182.415 38.1296 182.93 38.1296C183.376 38.1296 183.766 38.2191 184.102 38.398C184.437 38.5742 184.697 38.8455 184.881 39.212C185.069 39.5756 185.163 40.0387 185.163 40.6012V44.7603H184.157V40.6693C184.157 40.1495 184.022 39.7475 183.752 39.4634C183.485 39.1764 183.114 39.033 182.64 39.033C182.31 39.033 182.015 39.1026 181.754 39.2418C181.495 39.381 181.29 39.5841 181.14 39.8512C180.992 40.1182 180.918 40.4421 180.918 40.8228ZM189.662 44.8966C189.071 44.8966 188.552 44.756 188.106 44.4747C187.663 44.1935 187.316 43.8 187.066 43.2943C186.819 42.7887 186.696 42.1978 186.696 41.5216C186.696 40.8398 186.819 40.2446 187.066 39.7361C187.316 39.2276 187.663 38.8327 188.106 38.5514C188.552 38.2702 189.071 38.1296 189.662 38.1296C190.252 38.1296 190.77 38.2702 191.213 38.5514C191.659 38.8327 192.005 39.2276 192.252 39.7361C192.502 40.2446 192.627 40.8398 192.627 41.5216C192.627 42.1978 192.502 42.7887 192.252 43.2943C192.005 43.8 191.659 44.1935 191.213 44.4747C190.77 44.756 190.252 44.8966 189.662 44.8966ZM189.662 43.9932C190.11 43.9932 190.48 43.8782 190.77 43.648C191.059 43.4179 191.274 43.1154 191.413 42.7404C191.552 42.3654 191.622 41.9591 191.622 41.5216C191.622 41.0841 191.552 40.6764 191.413 40.2986C191.274 39.9208 191.059 39.6154 190.77 39.3824C190.48 39.1495 190.11 39.033 189.662 39.033C189.213 39.033 188.843 39.1495 188.554 39.3824C188.264 39.6154 188.049 39.9208 187.91 40.2986C187.771 40.6764 187.701 41.0841 187.701 41.5216C187.701 41.9591 187.771 42.3654 187.91 42.7404C188.049 43.1154 188.264 43.4179 188.554 43.648C188.843 43.8782 189.213 43.9932 189.662 43.9932ZM196.634 44.8966C196.089 44.8966 195.607 44.7588 195.19 44.4833C194.772 44.2049 194.445 43.8128 194.21 43.3071C193.974 42.7986 193.856 42.1978 193.856 41.5046C193.856 40.8171 193.974 40.2205 194.21 39.7148C194.445 39.2091 194.773 38.8185 195.194 38.5429C195.614 38.2674 196.1 38.1296 196.651 38.1296C197.077 38.1296 197.414 38.2006 197.661 38.3426C197.911 38.4818 198.102 38.6409 198.232 38.8199C198.366 38.996 198.469 39.1409 198.543 39.2546H198.629V36.033H199.634V44.7603H198.663V43.7546H198.543C198.469 43.8739 198.364 44.0245 198.228 44.2063C198.092 44.3853 197.897 44.5458 197.644 44.6878C197.391 44.827 197.055 44.8966 196.634 44.8966ZM196.771 43.9932C197.174 43.9932 197.515 43.8881 197.793 43.6779C198.072 43.4648 198.283 43.1708 198.428 42.7958C198.573 42.4179 198.646 41.9818 198.646 41.4875C198.646 40.9989 198.575 40.5713 198.433 40.2049C198.29 39.8355 198.08 39.5486 197.802 39.3441C197.523 39.1367 197.18 39.033 196.771 39.033C196.344 39.033 195.989 39.1424 195.705 39.3611C195.424 39.577 195.212 39.871 195.07 40.2432C194.931 40.6125 194.862 41.0273 194.862 41.4875C194.862 41.9534 194.933 42.3767 195.075 42.7574C195.219 43.1353 195.433 43.4364 195.714 43.6608C195.998 43.8824 196.35 43.9932 196.771 43.9932ZM204.36 44.8966C203.729 44.8966 203.185 44.7574 202.728 44.479C202.273 44.1978 201.923 43.8057 201.675 43.3029C201.431 42.7972 201.309 42.2091 201.309 41.5387C201.309 40.8682 201.431 40.2773 201.675 39.7659C201.923 39.2517 202.266 38.8512 202.707 38.5642C203.15 38.2745 203.667 38.1296 204.258 38.1296C204.599 38.1296 204.935 38.1864 205.268 38.3C205.6 38.4137 205.903 38.5983 206.175 38.854C206.448 39.1068 206.665 39.4421 206.827 39.8597C206.989 40.2773 207.07 40.7915 207.07 41.4023V41.8284H202.025V40.9591H206.048C206.048 40.5898 205.974 40.2603 205.826 39.9705C205.681 39.6807 205.474 39.452 205.204 39.2844C204.937 39.1168 204.621 39.033 204.258 39.033C203.857 39.033 203.511 39.1324 203.218 39.3313C202.928 39.5273 202.705 39.783 202.549 40.0983C202.393 40.4137 202.315 40.7517 202.315 41.1125V41.6921C202.315 42.1864 202.4 42.6054 202.57 42.9492C202.744 43.2901 202.984 43.55 203.29 43.729C203.597 43.9051 203.954 43.9932 204.36 43.9932C204.624 43.9932 204.863 43.9563 205.076 43.8824C205.292 43.8057 205.478 43.6921 205.634 43.5415C205.79 43.3881 205.911 43.1978 205.996 42.9705L206.968 43.2432C206.866 43.5728 206.694 43.8625 206.452 44.1125C206.211 44.3597 205.913 44.5529 205.558 44.6921C205.202 44.8284 204.803 44.8966 204.36 44.8966ZM212.112 44.7603V36.033H217.344V36.9705H213.168V39.9193H216.952V40.8568H213.168V44.7603H212.112ZM219.018 44.7603V38.2148H220.024V44.7603H219.018ZM219.529 37.1239C219.333 37.1239 219.164 37.0571 219.022 36.9236C218.883 36.7901 218.814 36.6296 218.814 36.4421C218.814 36.2546 218.883 36.0941 219.022 35.9605C219.164 35.827 219.333 35.7603 219.529 35.7603C219.725 35.7603 219.893 35.827 220.032 35.9605C220.174 36.0941 220.245 36.2546 220.245 36.4421C220.245 36.6296 220.174 36.7901 220.032 36.9236C219.893 37.0571 219.725 37.1239 219.529 37.1239ZM222.871 36.033V44.7603H221.866V36.033H222.871ZM224.713 44.7603V38.2148H225.685V39.2375H225.77C225.907 38.8881 226.127 38.6168 226.431 38.4236C226.735 38.2276 227.1 38.1296 227.526 38.1296C227.958 38.1296 228.317 38.2276 228.604 38.4236C228.894 38.6168 229.12 38.8881 229.282 39.2375H229.35C229.517 38.8995 229.769 38.631 230.104 38.4321C230.439 38.2304 230.841 38.1296 231.31 38.1296C231.895 38.1296 232.374 38.3128 232.746 38.6793C233.118 39.0429 233.304 39.6097 233.304 40.3796V44.7603H232.299V40.3796C232.299 39.8966 232.167 39.5514 231.902 39.3441C231.638 39.1367 231.327 39.033 230.969 39.033C230.509 39.033 230.152 39.1722 229.9 39.4506C229.647 39.7262 229.52 40.0756 229.52 40.4989V44.7603H228.498V40.2773C228.498 39.9051 228.377 39.6054 228.135 39.3782C227.894 39.148 227.583 39.033 227.202 39.033C226.941 39.033 226.696 39.1026 226.469 39.2418C226.245 39.381 226.063 39.5742 225.924 39.8213C225.787 40.0657 225.719 40.3483 225.719 40.6693V44.7603H224.713Z" fill="black"/>
<path d="M160.057 101.767V93.0398H165.324V93.9773H161.114V96.9262H165.051V97.8637H161.114V100.83H165.392V101.767H160.057ZM168.098 93.0398V101.767H167.092V93.0398H168.098ZM172.684 101.903C172.054 101.903 171.51 101.764 171.052 101.486C170.598 101.205 170.247 100.813 170 100.31C169.755 99.804 169.633 99.216 169.633 98.5455C169.633 97.875 169.755 97.2841 170 96.7728C170.247 96.2586 170.591 95.858 171.031 95.5711C171.474 95.2813 171.991 95.1364 172.582 95.1364C172.923 95.1364 173.26 95.1932 173.592 95.3069C173.924 95.4205 174.227 95.6052 174.5 95.8608C174.772 96.1137 174.99 96.4489 175.152 96.8665C175.314 97.2841 175.395 97.7983 175.395 98.4091V98.8353H170.349V97.966H174.372C174.372 97.5966 174.298 97.2671 174.15 96.9773C174.005 96.6875 173.798 96.4589 173.528 96.2912C173.261 96.1236 172.946 96.0398 172.582 96.0398C172.181 96.0398 171.835 96.1392 171.542 96.3381C171.252 96.5341 171.029 96.7898 170.873 97.1052C170.717 97.4205 170.639 97.7586 170.639 98.1194V98.6989C170.639 99.1932 170.724 99.6123 170.895 99.956C171.068 100.297 171.308 100.557 171.615 100.736C171.922 100.912 172.278 101 172.684 101C172.949 101 173.187 100.963 173.4 100.889C173.616 100.813 173.802 100.699 173.958 100.548C174.115 100.395 174.235 100.205 174.321 99.9773L175.292 100.25C175.19 100.58 175.018 100.869 174.777 101.119C174.535 101.367 174.237 101.56 173.882 101.699C173.527 101.835 173.127 101.903 172.684 101.903ZM179.583 101.903C178.97 101.903 178.441 101.759 177.998 101.469C177.555 101.179 177.214 100.78 176.975 100.271C176.737 99.7628 176.618 99.1819 176.618 98.5285C176.618 97.8637 176.74 97.277 176.984 96.7685C177.231 96.2571 177.575 95.858 178.015 95.5711C178.458 95.2813 178.975 95.1364 179.566 95.1364C180.027 95.1364 180.441 95.2216 180.811 95.3921C181.18 95.5625 181.483 95.8012 181.718 96.108C181.954 96.4148 182.1 96.7728 182.157 97.1819H181.152C181.075 96.8836 180.904 96.6194 180.64 96.3892C180.379 96.1563 180.027 96.0398 179.583 96.0398C179.191 96.0398 178.848 96.1421 178.552 96.3466C178.26 96.5483 178.031 96.8339 177.866 97.2032C177.704 97.5696 177.623 98 177.623 98.4944C177.623 99 177.703 99.4404 177.862 99.8154C178.024 100.19 178.251 100.482 178.544 100.689C178.839 100.896 179.186 101 179.583 101C179.845 101 180.082 100.955 180.295 100.864C180.508 100.773 180.689 100.642 180.836 100.472C180.984 100.301 181.089 100.097 181.152 99.858H182.157C182.1 100.244 181.96 100.592 181.735 100.902C181.514 101.209 181.22 101.453 180.853 101.635C180.49 101.814 180.066 101.903 179.583 101.903ZM186.474 95.2216V96.0739H183.082V95.2216H186.474ZM184.071 93.6535H185.076V99.8921C185.076 100.176 185.118 100.389 185.2 100.531C185.285 100.67 185.393 100.764 185.524 100.813C185.657 100.858 185.798 100.881 185.946 100.881C186.056 100.881 186.147 100.875 186.218 100.864C186.289 100.849 186.346 100.838 186.389 100.83L186.593 101.733C186.525 101.759 186.43 101.784 186.308 101.81C186.186 101.838 186.031 101.852 185.843 101.852C185.559 101.852 185.281 101.791 185.008 101.669C184.738 101.547 184.514 101.361 184.335 101.111C184.159 100.861 184.071 100.545 184.071 100.165V93.6535ZM187.987 101.767V95.2216H188.958V96.2103H189.027C189.146 95.8864 189.362 95.6236 189.674 95.4219C189.987 95.2202 190.339 95.1194 190.731 95.1194C190.805 95.1194 190.897 95.1208 191.008 95.1236C191.119 95.1265 191.203 95.1307 191.26 95.1364V96.1591C191.225 96.1506 191.147 96.1378 191.025 96.1208C190.906 96.1009 190.779 96.091 190.646 96.091C190.328 96.091 190.044 96.1577 189.794 96.2912C189.547 96.4219 189.35 96.6037 189.206 96.8367C189.064 97.0668 188.993 97.3296 188.993 97.625V101.767H187.987ZM194.912 101.903C194.321 101.903 193.802 101.763 193.356 101.482C192.913 101.2 192.566 100.807 192.316 100.301C192.069 99.7955 191.946 99.2046 191.946 98.5285C191.946 97.8466 192.069 97.2515 192.316 96.7429C192.566 96.2344 192.913 95.8395 193.356 95.5583C193.802 95.277 194.321 95.1364 194.912 95.1364C195.502 95.1364 196.02 95.277 196.463 95.5583C196.909 95.8395 197.255 96.2344 197.502 96.7429C197.752 97.2515 197.877 97.8466 197.877 98.5285C197.877 99.2046 197.752 99.7955 197.502 100.301C197.255 100.807 196.909 101.2 196.463 101.482C196.02 101.763 195.502 101.903 194.912 101.903ZM194.912 101C195.36 101 195.73 100.885 196.02 100.655C196.309 100.425 196.524 100.122 196.663 99.7472C196.802 99.3722 196.872 98.966 196.872 98.5285C196.872 98.091 196.802 97.6833 196.663 97.3054C196.524 96.9276 196.309 96.6222 196.02 96.3892C195.73 96.1563 195.36 96.0398 194.912 96.0398C194.463 96.0398 194.093 96.1563 193.804 96.3892C193.514 96.6222 193.299 96.9276 193.16 97.3054C193.021 97.6833 192.951 98.091 192.951 98.5285C192.951 98.966 193.021 99.3722 193.16 99.7472C193.299 100.122 193.514 100.425 193.804 100.655C194.093 100.885 194.463 101 194.912 101ZM200.418 93.0398V101.767H199.413V93.0398H200.418ZM202.908 104.222C202.738 104.222 202.586 104.207 202.452 104.179C202.319 104.153 202.226 104.128 202.175 104.102L202.431 103.216C202.675 103.278 202.891 103.301 203.078 103.284C203.266 103.267 203.432 103.183 203.577 103.033C203.725 102.885 203.86 102.645 203.982 102.313L204.169 101.801L201.749 95.2216H202.84L204.647 100.438H204.715L206.522 95.2216H207.613L204.834 102.722C204.709 103.06 204.554 103.34 204.37 103.561C204.185 103.786 203.971 103.952 203.726 104.06C203.485 104.168 203.212 104.222 202.908 104.222ZM211.787 95.2216V96.0739H208.395V95.2216H211.787ZM209.383 93.6535H210.389V99.8921C210.389 100.176 210.43 100.389 210.512 100.531C210.598 100.67 210.706 100.764 210.836 100.813C210.97 100.858 211.11 100.881 211.258 100.881C211.369 100.881 211.46 100.875 211.531 100.864C211.602 100.849 211.659 100.838 211.701 100.83L211.906 101.733C211.838 101.759 211.743 101.784 211.62 101.81C211.498 101.838 211.343 101.852 211.156 101.852C210.872 101.852 210.593 101.791 210.321 101.669C210.051 101.547 209.826 101.361 209.647 101.111C209.471 100.861 209.383 100.545 209.383 100.165V93.6535ZM215.973 101.903C215.343 101.903 214.799 101.764 214.341 101.486C213.887 101.205 213.536 100.813 213.289 100.31C213.044 99.804 212.922 99.216 212.922 98.5455C212.922 97.875 213.044 97.2841 213.289 96.7728C213.536 96.2586 213.88 95.858 214.32 95.5711C214.763 95.2813 215.28 95.1364 215.871 95.1364C216.212 95.1364 216.549 95.1932 216.881 95.3069C217.213 95.4205 217.516 95.6052 217.789 95.8608C218.061 96.1137 218.279 96.4489 218.441 96.8665C218.603 97.2841 218.684 97.7983 218.684 98.4091V98.8353H213.638V97.966H217.661C217.661 97.5966 217.587 97.2671 217.439 96.9773C217.294 96.6875 217.087 96.4589 216.817 96.2912C216.55 96.1236 216.235 96.0398 215.871 96.0398C215.471 96.0398 215.124 96.1392 214.831 96.3381C214.542 96.5341 214.319 96.7898 214.162 97.1052C214.006 97.4205 213.928 97.7586 213.928 98.1194V98.6989C213.928 99.1932 214.013 99.6123 214.184 99.956C214.357 100.297 214.597 100.557 214.904 100.736C215.211 100.912 215.567 101 215.973 101C216.238 101 216.476 100.963 216.689 100.889C216.905 100.813 217.091 100.699 217.248 100.548C217.404 100.395 217.525 100.205 217.61 99.9773L218.581 100.25C218.479 100.58 218.307 100.869 218.066 101.119C217.824 101.367 217.526 101.56 217.171 101.699C216.816 101.835 216.417 101.903 215.973 101.903ZM223.725 101.767V93.0398H228.958V93.9773H224.782V96.9262H228.566V97.8637H224.782V101.767H223.725ZM230.631 101.767V95.2216H231.637V101.767H230.631ZM231.143 94.1307C230.947 94.1307 230.778 94.064 230.636 93.9304C230.496 93.7969 230.427 93.6364 230.427 93.4489C230.427 93.2614 230.496 93.1009 230.636 92.9674C230.778 92.8339 230.947 92.7671 231.143 92.7671C231.339 92.7671 231.506 92.8339 231.646 92.9674C231.788 93.1009 231.859 93.2614 231.859 93.4489C231.859 93.6364 231.788 93.7969 231.646 93.9304C231.506 94.064 231.339 94.1307 231.143 94.1307ZM234.485 93.0398V101.767H233.479V93.0398H234.485ZM236.327 101.767V95.2216H237.298V96.2444H237.384C237.52 95.8949 237.74 95.6236 238.044 95.4304C238.348 95.2344 238.713 95.1364 239.139 95.1364C239.571 95.1364 239.93 95.2344 240.217 95.4304C240.507 95.6236 240.733 95.8949 240.895 96.2444H240.963C241.131 95.9063 241.382 95.6378 241.717 95.439C242.053 95.2373 242.455 95.1364 242.923 95.1364C243.509 95.1364 243.987 95.3196 244.359 95.6861C244.732 96.0498 244.918 96.6165 244.918 97.3864V101.767H243.912V97.3864C243.912 96.9035 243.78 96.5583 243.516 96.3509C243.251 96.1435 242.94 96.0398 242.582 96.0398C242.122 96.0398 241.766 96.179 241.513 96.4574C241.26 96.733 241.134 97.0824 241.134 97.5057V101.767H240.111V97.2841C240.111 96.912 239.99 96.6123 239.749 96.385C239.507 96.1549 239.196 96.0398 238.815 96.0398C238.554 96.0398 238.31 96.1094 238.082 96.2486C237.858 96.3878 237.676 96.581 237.537 96.8282C237.401 97.0725 237.332 97.3552 237.332 97.6762V101.767H236.327Z" fill="black"/>
<path d="M160.415 207.918H159.307L162.511 199.19H163.602L166.807 207.918H165.699L163.091 200.571H163.023L160.415 207.918ZM160.824 204.509H165.29V205.446H160.824V204.509ZM169.036 203.98V207.918H168.03V201.372H169.001V202.395H169.087C169.24 202.063 169.473 201.796 169.786 201.594C170.098 201.389 170.501 201.287 170.996 201.287C171.439 201.287 171.827 201.378 172.159 201.56C172.491 201.739 172.75 202.011 172.935 202.378C173.119 202.742 173.212 203.202 173.212 203.759V207.918H172.206V203.827C172.206 203.313 172.072 202.912 171.805 202.625C171.538 202.335 171.172 202.19 170.706 202.19C170.385 202.19 170.098 202.26 169.845 202.399C169.595 202.538 169.398 202.742 169.253 203.009C169.108 203.276 169.036 203.6 169.036 203.98ZM177.708 208.054C177.118 208.054 176.599 207.913 176.153 207.632C175.71 207.351 175.363 206.957 175.113 206.452C174.866 205.946 174.743 205.355 174.743 204.679C174.743 203.997 174.866 203.402 175.113 202.894C175.363 202.385 175.71 201.99 176.153 201.709C176.599 201.428 177.118 201.287 177.708 201.287C178.299 201.287 178.816 201.428 179.26 201.709C179.706 201.99 180.052 202.385 180.299 202.894C180.549 203.402 180.674 203.997 180.674 204.679C180.674 205.355 180.549 205.946 180.299 206.452C180.052 206.957 179.706 207.351 179.26 207.632C178.816 207.913 178.299 208.054 177.708 208.054ZM177.708 207.151C178.157 207.151 178.527 207.036 178.816 206.806C179.106 206.575 179.321 206.273 179.46 205.898C179.599 205.523 179.669 205.117 179.669 204.679C179.669 204.242 179.599 203.834 179.46 203.456C179.321 203.078 179.106 202.773 178.816 202.54C178.527 202.307 178.157 202.19 177.708 202.19C177.26 202.19 176.89 202.307 176.6 202.54C176.311 202.773 176.096 203.078 175.957 203.456C175.818 203.834 175.748 204.242 175.748 204.679C175.748 205.117 175.818 205.523 175.957 205.898C176.096 206.273 176.311 206.575 176.6 206.806C176.89 207.036 177.26 207.151 177.708 207.151ZM184.681 208.054C184.136 208.054 183.654 207.916 183.237 207.641C182.819 207.362 182.492 206.97 182.256 206.465C182.021 205.956 181.903 205.355 181.903 204.662C181.903 203.975 182.021 203.378 182.256 202.872C182.492 202.367 182.82 201.976 183.241 201.7C183.661 201.425 184.147 201.287 184.698 201.287C185.124 201.287 185.461 201.358 185.708 201.5C185.958 201.639 186.148 201.798 186.279 201.977C186.413 202.154 186.516 202.298 186.59 202.412H186.675V199.19H187.681V207.918H186.71V206.912H186.59C186.516 207.031 186.411 207.182 186.275 207.364C186.138 207.543 185.944 207.703 185.691 207.845C185.438 207.984 185.102 208.054 184.681 208.054ZM184.817 207.151C185.221 207.151 185.562 207.046 185.84 206.835C186.119 206.622 186.33 206.328 186.475 205.953C186.62 205.575 186.692 205.139 186.692 204.645C186.692 204.156 186.621 203.729 186.479 203.362C186.337 202.993 186.127 202.706 185.849 202.502C185.57 202.294 185.227 202.19 184.817 202.19C184.391 202.19 184.036 202.3 183.752 202.519C183.471 202.734 183.259 203.029 183.117 203.401C182.978 203.77 182.908 204.185 182.908 204.645C182.908 205.111 182.979 205.534 183.121 205.915C183.266 206.293 183.479 206.594 183.761 206.818C184.045 207.04 184.397 207.151 184.817 207.151ZM192.407 208.054C191.776 208.054 191.232 207.915 190.775 207.636C190.32 207.355 189.969 206.963 189.722 206.46C189.478 205.955 189.356 205.367 189.356 204.696C189.356 204.026 189.478 203.435 189.722 202.923C189.969 202.409 190.313 202.009 190.754 201.722C191.197 201.432 191.714 201.287 192.305 201.287C192.646 201.287 192.982 201.344 193.315 201.457C193.647 201.571 193.95 201.756 194.222 202.011C194.495 202.264 194.712 202.6 194.874 203.017C195.036 203.435 195.117 203.949 195.117 204.56V204.986H190.072V204.117H194.094C194.094 203.747 194.021 203.418 193.873 203.128C193.728 202.838 193.521 202.609 193.251 202.442C192.984 202.274 192.668 202.19 192.305 202.19C191.904 202.19 191.558 202.29 191.265 202.489C190.975 202.685 190.752 202.94 190.596 203.256C190.44 203.571 190.362 203.909 190.362 204.27V204.85C190.362 205.344 190.447 205.763 190.617 206.107C190.79 206.448 191.031 206.707 191.337 206.886C191.644 207.063 192.001 207.151 192.407 207.151C192.671 207.151 192.91 207.114 193.123 207.04C193.339 206.963 193.525 206.85 193.681 206.699C193.837 206.546 193.958 206.355 194.043 206.128L195.015 206.401C194.913 206.73 194.741 207.02 194.499 207.27C194.258 207.517 193.96 207.71 193.604 207.85C193.249 207.986 192.85 208.054 192.407 208.054ZM204.931 201.372C204.88 200.94 204.673 200.605 204.309 200.367C203.945 200.128 203.499 200.009 202.971 200.009C202.585 200.009 202.246 200.071 201.957 200.196C201.67 200.321 201.445 200.493 201.283 200.712C201.124 200.931 201.045 201.179 201.045 201.457C201.045 201.69 201.1 201.891 201.211 202.058C201.325 202.223 201.469 202.361 201.646 202.472C201.822 202.58 202.006 202.669 202.2 202.74C202.393 202.808 202.57 202.864 202.732 202.906L203.619 203.145C203.846 203.205 204.099 203.287 204.377 203.392C204.658 203.497 204.927 203.641 205.183 203.823C205.441 204.002 205.654 204.232 205.822 204.513C205.989 204.794 206.073 205.139 206.073 205.548C206.073 206.02 205.95 206.446 205.702 206.827C205.458 207.207 205.1 207.51 204.629 207.734C204.16 207.959 203.59 208.071 202.92 208.071C202.295 208.071 201.754 207.97 201.296 207.769C200.842 207.567 200.484 207.286 200.222 206.925C199.964 206.564 199.817 206.145 199.783 205.668H200.874C200.903 205.997 201.013 206.27 201.207 206.486C201.403 206.699 201.65 206.858 201.948 206.963C202.249 207.065 202.573 207.117 202.92 207.117C203.323 207.117 203.685 207.051 204.006 206.921C204.327 206.787 204.582 206.602 204.769 206.367C204.957 206.128 205.05 205.85 205.05 205.531C205.05 205.242 204.969 205.006 204.808 204.824C204.646 204.642 204.433 204.494 204.168 204.381C203.904 204.267 203.619 204.168 203.312 204.082L202.238 203.776C201.556 203.58 201.016 203.3 200.619 202.936C200.221 202.573 200.022 202.097 200.022 201.509C200.022 201.02 200.154 200.594 200.418 200.23C200.685 199.864 201.043 199.58 201.492 199.378C201.944 199.173 202.448 199.071 203.005 199.071C203.567 199.071 204.067 199.172 204.505 199.374C204.942 199.573 205.289 199.845 205.545 200.192C205.803 200.538 205.94 200.932 205.954 201.372H204.931ZM211.799 205.242V201.372H212.805V207.918H211.799V206.81H211.731C211.578 207.142 211.339 207.425 211.015 207.658C210.691 207.888 210.282 208.003 209.788 208.003C209.379 208.003 209.015 207.913 208.697 207.734C208.379 207.553 208.129 207.28 207.947 206.916C207.765 206.55 207.674 206.088 207.674 205.531V201.372H208.68V205.463C208.68 205.94 208.814 206.321 209.081 206.605C209.35 206.889 209.694 207.031 210.112 207.031C210.362 207.031 210.616 206.967 210.875 206.84C211.136 206.712 211.355 206.516 211.531 206.252C211.71 205.987 211.799 205.651 211.799 205.242ZM214.647 210.372V201.372H215.619V202.412H215.738C215.812 202.298 215.914 202.154 216.045 201.977C216.178 201.798 216.369 201.639 216.616 201.5C216.866 201.358 217.204 201.287 217.63 201.287C218.181 201.287 218.667 201.425 219.087 201.7C219.508 201.976 219.836 202.367 220.072 202.872C220.308 203.378 220.425 203.975 220.425 204.662C220.425 205.355 220.308 205.956 220.072 206.465C219.836 206.97 219.509 207.362 219.092 207.641C218.674 207.916 218.192 208.054 217.647 208.054C217.227 208.054 216.89 207.984 216.637 207.845C216.384 207.703 216.19 207.543 216.053 207.364C215.917 207.182 215.812 207.031 215.738 206.912H215.653V210.372H214.647ZM215.636 204.645C215.636 205.139 215.708 205.575 215.853 205.953C215.998 206.328 216.21 206.622 216.488 206.835C216.766 207.046 217.107 207.151 217.511 207.151C217.931 207.151 218.282 207.04 218.563 206.818C218.847 206.594 219.06 206.293 219.202 205.915C219.347 205.534 219.42 205.111 219.42 204.645C219.42 204.185 219.349 203.77 219.207 203.401C219.067 203.029 218.856 202.734 218.572 202.519C218.29 202.3 217.937 202.19 217.511 202.19C217.102 202.19 216.758 202.294 216.479 202.502C216.201 202.706 215.991 202.993 215.849 203.362C215.707 203.729 215.636 204.156 215.636 204.645ZM221.96 210.372V201.372H222.931V202.412H223.05C223.124 202.298 223.227 202.154 223.357 201.977C223.491 201.798 223.681 201.639 223.928 201.5C224.178 201.358 224.516 201.287 224.942 201.287C225.494 201.287 225.979 201.425 226.4 201.7C226.82 201.976 227.148 202.367 227.384 202.872C227.62 203.378 227.738 203.975 227.738 204.662C227.738 205.355 227.62 205.956 227.384 206.465C227.148 206.97 226.822 207.362 226.404 207.641C225.987 207.916 225.505 208.054 224.96 208.054C224.539 208.054 224.202 207.984 223.95 207.845C223.697 207.703 223.502 207.543 223.366 207.364C223.229 207.182 223.124 207.031 223.05 206.912H222.965V210.372H221.96ZM222.948 204.645C222.948 205.139 223.021 205.575 223.165 205.953C223.31 206.328 223.522 206.622 223.8 206.835C224.079 207.046 224.42 207.151 224.823 207.151C225.244 207.151 225.594 207.04 225.876 206.818C226.16 206.594 226.373 206.293 226.515 205.915C226.66 205.534 226.732 205.111 226.732 204.645C226.732 204.185 226.661 203.77 226.519 203.401C226.38 203.029 226.168 202.734 225.884 202.519C225.603 202.3 225.249 202.19 224.823 202.19C224.414 202.19 224.07 202.294 223.792 202.502C223.513 202.706 223.303 202.993 223.161 203.362C223.019 203.729 222.948 204.156 222.948 204.645ZM231.931 208.054C231.34 208.054 230.822 207.913 230.376 207.632C229.933 207.351 229.586 206.957 229.336 206.452C229.089 205.946 228.965 205.355 228.965 204.679C228.965 203.997 229.089 203.402 229.336 202.894C229.586 202.385 229.933 201.99 230.376 201.709C230.822 201.428 231.34 201.287 231.931 201.287C232.522 201.287 233.039 201.428 233.482 201.709C233.928 201.99 234.275 202.385 234.522 202.894C234.772 203.402 234.897 203.997 234.897 204.679C234.897 205.355 234.772 205.946 234.522 206.452C234.275 206.957 233.928 207.351 233.482 207.632C233.039 207.913 232.522 208.054 231.931 208.054ZM231.931 207.151C232.38 207.151 232.749 207.036 233.039 206.806C233.329 206.575 233.543 206.273 233.683 205.898C233.822 205.523 233.891 205.117 233.891 204.679C233.891 204.242 233.822 203.834 233.683 203.456C233.543 203.078 233.329 202.773 233.039 202.54C232.749 202.307 232.38 202.19 231.931 202.19C231.482 202.19 231.113 202.307 230.823 202.54C230.533 202.773 230.319 203.078 230.18 203.456C230.04 203.834 229.971 204.242 229.971 204.679C229.971 205.117 230.04 205.523 230.18 205.898C230.319 206.273 230.533 206.575 230.823 206.806C231.113 207.036 231.482 207.151 231.931 207.151ZM236.432 207.918V201.372H237.404V202.361H237.472C237.591 202.037 237.807 201.774 238.12 201.573C238.432 201.371 238.784 201.27 239.176 201.27C239.25 201.27 239.343 201.271 239.453 201.274C239.564 201.277 239.648 201.281 239.705 201.287V202.31C239.671 202.301 239.593 202.288 239.471 202.271C239.351 202.252 239.225 202.242 239.091 202.242C238.773 202.242 238.489 202.308 238.239 202.442C237.992 202.573 237.796 202.754 237.651 202.987C237.509 203.217 237.438 203.48 237.438 203.776V207.918H236.432ZM244.154 201.372V202.225H240.762V201.372H244.154ZM241.75 199.804H242.756V206.043C242.756 206.327 242.797 206.54 242.88 206.682C242.965 206.821 243.073 206.915 243.203 206.963C243.337 207.009 243.478 207.031 243.625 207.031C243.736 207.031 243.827 207.026 243.898 207.014C243.969 207 244.026 206.989 244.069 206.98L244.273 207.884C244.205 207.909 244.11 207.935 243.988 207.96C243.865 207.989 243.711 208.003 243.523 208.003C243.239 208.003 242.961 207.942 242.688 207.82C242.418 207.698 242.194 207.511 242.015 207.261C241.838 207.011 241.75 206.696 241.75 206.315V199.804Z" fill="black"/>
</svg>
